<svg xmlns="http://www.w3.org/2000/svg" width="83" height="36" viewBox="0 0 83 36">
    <g fill="none" fill-rule="evenodd">
        <path fill="#333F48" d="M4.536 11.605c.067-3.746 3.28-6.678 7.026-6.678h8.885L18.855.874 18.68.428a4.588 4.588 0 0 0-.54-.035h-6.803C5.15.393.105 5.374.002 11.537c-.107 6.34 5.294 11.53 11.636 11.53h6.501a4.535 4.535 0 0 0 4.535-4.535H11.337a6.801 6.801 0 0 1-6.801-6.927M61.985.283l-.19.481-1.591 4.054h7.845v18.14a4.535 4.535 0 0 0 4.534-4.536V4.818h5.722A4.534 4.534 0 0 0 82.84.283H61.985zM49.233 16.88l4.701-11.965A7.13 7.13 0 0 1 60.57.393l-8.02 20.412a3.565 3.565 0 0 1-6.635 0L40.325 6.58l-5.59 14.227a3.565 3.565 0 0 1-6.635 0L20.08.393h.043a7.067 7.067 0 0 1 6.578 4.482l4.716 12.005 5.59-14.226a3.565 3.565 0 0 1 6.636 0l5.59 14.226z"/>
        <path fill="#EE6749" d="M45.546 35.098c-.03.072.068.124.113.06 3.57-5.098 11.819-3.61 17.88-3.569 2.3.017 4.919-1.288 6.018-3.006 1.15-1.795 2.257-3.891 3.305-6.412.03-.073-.07-.127-.115-.062-3.157 4.645-11.825 3.355-17.772 3.313-2.3-.016-4.92 1.29-6.02 3.007-1.187 1.855-2.33 4.033-3.41 6.669"/>
    </g>
</svg>
